<svg viewBox="0 0 24 24" xmlns="http://www.w3.org/2000/svg"><path d="M14.5 12c0-0.69-0.281-1.316-0.732-1.767s-1.077-0.732-1.767-0.732-1.316 0.281-1.767 0.732-0.732 1.077-0.732 1.767 0.281 1.316 0.732 1.767 1.077 0.732 1.767 0.732 1.316-0.281 1.767-0.732 0.732-1.077 0.732-1.767zM23.249 12c0-0.69-0.281-1.316-0.732-1.767s-1.077-0.732-1.767-0.732-1.316 0.281-1.767 0.732-0.732 1.077-0.732 1.767 0.281 1.316 0.732 1.767 1.077 0.732 1.767 0.732 1.316-0.281 1.767-0.732 0.732-1.077 0.732-1.767zM5.75 12c0-0.69-0.281-1.316-0.732-1.767s-1.077-0.732-1.767-0.732-1.316 0.281-1.767 0.732-0.732 1.077-0.732 1.767 0.281 1.316 0.732 1.767 1.077 0.732 1.767 0.732 1.316-0.281 1.767-0.732 0.732-1.077 0.732-1.767z"></path></svg>